# xmcd
#
# Track frame offsets: 
#        187
#        32059
#        63179
#        88002
#        110247
#        135332
#        157489
#        181372
#
# Disc length: 2855 seconds
#
# Revision: 3
# Processed by: cddbd v1.5.2PL0 Copyright (c) Steve Scherf et al.
# Submitted via: ExactAudioCopy v0.95b4
#
DISCID=6d0b2508
DTITLE=Coroner - Mental Vortex
DYEAR=1991
DGENRE=Technical Thrash Metal
TTITLE0=Divine Step (Conspectu Mortis)
TTITLE1=Son Of Lilith
TTITLE2=Semtex Revolution
TTITLE3=Sirens
TTITLE4=Metamorphosis
TTITLE5=Pale Sister
TTITLE6=About Life
TTITLE7=I Want You (She's So Heavy) (The Beatles Cover) 
EXTD=YEAR: 1991
EXTT0=(Conspectu mortiis)
EXTT1=
EXTT2=
EXTT3=
EXTT4=
EXTT5=
EXTT6=
EXTT7=(She's so heavy)
PLAYORDER=
